<?xml version="1.0" standalone="no"?>
<!DOCTYPE svg PUBLIC "-//W3C//DTD SVG 20010904//EN"
 "http://www.w3.org/TR/2001/REC-SVG-20010904/DTD/svg10.dtd">
<svg version="1.0" xmlns="http://www.w3.org/2000/svg"
 width="150.000000pt" height="50.000000pt" viewBox="0 100 1000.000000 100.000000"
 preserveAspectRatio="xMidYMid meet">

<g transform="translate(0.000000,207.000000) scale(0.100000,-0.100000)"
fill="#004FC1" stroke="none">
<path d="M733 2063 c-13 -2 -23 -6 -23 -9 0 -18 -245 -1219 -256 -1257 -3 -9
-29 -29 -57 -43 -162 -81 -301 -203 -353 -309 -57 -117 -41 -275 37 -360 59
-64 123 -88 223 -83 173 7 292 119 354 333 12 39 60 246 108 460 48 215 90
393 93 397 4 4 35 -212 70 -480 35 -268 67 -491 71 -495 3 -4 56 -6 115 -5
l109 3 216 498 c118 273 216 493 218 488 2 -5 -17 -177 -42 -383 -68 -557 -68
-556 -51 -623 33 -126 105 -184 239 -193 141 -9 273 43 428 167 l87 70 68 -68
c49 -49 89 -78 143 -103 109 -52 166 -63 320 -63 121 1 143 4 215 29 191 66
340 206 418 392 61 144 78 381 37 504 -54 161 -171 281 -336 347 -66 26 -77
28 -234 28 -154 -1 -170 -2 -245 -28 -227 -79 -387 -242 -449 -461 -30 -102
-43 -256 -28 -334 l9 -53 -51 -45 c-99 -87 -210 -120 -251 -74 -21 23 -23 -11
40 626 24 242 63 592 86 778 23 185 39 340 35 344 -11 10 -257 15 -295 5 -31
-8 -37 -19 -304 -626 -150 -339 -274 -612 -276 -606 -2 6 -40 286 -85 622
l-81 612 -150 1 c-83 1 -160 0 -172 -3z m2264 -984 c64 -20 128 -115 152 -227
16 -75 13 -245 -4 -321 -33 -137 -135 -276 -221 -300 -160 -44 -283 58 -315
261 -24 155 25 372 112 493 71 99 161 129 276 94z m-2597 -545 c0 -34 -42
-179 -65 -225 -25 -49 -50 -65 -89 -55 -25 6 -46 44 -46 83 0 45 48 112 118
163 73 54 82 58 82 34z"/>
<path d="M5151 2044 c-120 -61 -157 -211 -78 -317 60 -78 166 -108 255 -71
162 67 178 291 27 380 -68 39 -137 42 -204 8z"/>
<path d="M7010 2063 c-43 -7 -123 -35 -170 -58 -129 -65 -183 -190 -146 -335
62 -242 376 -279 585 -69 31 31 68 77 81 103 l25 46 322 0 322 0 23 -30 c12
-17 44 -41 72 -55 164 -82 342 58 304 239 -13 62 -84 139 -143 155 -38 10
-1214 14 -1275 4z m161 -357 c-82 -83 -190 -108 -226 -52 -20 29 -6 72 27 86
13 5 72 9 133 9 l109 1 -43 -44z"/>
<path d="M7530 1639 c-30 -5 -78 -20 -106 -33 -45 -21 -54 -29 -59 -58 -3 -18
-23 -172 -45 -343 -22 -170 -42 -319 -45 -330 -3 -13 -33 -35 -87 -62 -46 -24
-115 -67 -155 -97 l-72 -54 -37 44 -36 45 -44 -72 c-170 -276 -405 -434 -644
-433 -111 0 -171 25 -240 101 -61 67 -80 123 -87 258 -15 308 185 566 382 491
56 -22 81 -54 90 -114 18 -134 -110 -301 -261 -342 -27 -7 -53 -16 -58 -21 -5
-4 -1 -41 8 -83 l17 -75 32 6 c205 39 412 141 499 248 78 94 110 254 73 364
-32 99 -156 191 -293 220 -84 17 -258 14 -338 -7 -144 -38 -285 -131 -380
-250 -53 -67 -117 -194 -135 -272 -18 -72 -15 -259 5 -330 15 -55 15 -55 -12
-94 -43 -62 -96 -96 -152 -96 -32 0 -56 6 -71 19 -22 18 -24 26 -22 113 1 51
25 277 55 502 47 359 52 409 38 415 -8 3 -62 6 -120 6 -87 -1 -114 -5 -157
-24 -93 -41 -85 -11 -144 -523 -52 -453 -52 -457 -36 -522 30 -122 110 -203
225 -227 31 -6 97 -9 147 -7 78 3 101 8 156 36 63 31 120 77 170 139 l26 31
60 -57 c114 -111 255 -157 453 -148 224 11 408 89 597 254 l62 54 6 -38 c12
-76 38 -128 90 -179 65 -65 128 -88 241 -86 233 3 382 140 444 406 21 93 186
1213 179 1220 -10 10 -168 14 -219 5z m-290 -1036 c-1 -50 -31 -226 -46 -262
-33 -82 -111 -115 -167 -71 -80 63 -17 199 143 311 63 43 70 46 70 22z"/>
<path d="M4415 1356 c-80 -30 -134 -122 -119 -204 16 -91 80 -146 188 -161 37
-5 70 -12 73 -14 9 -10 -17 -196 -41 -291 -14 -54 -47 -144 -74 -200 -79 -166
-148 -226 -259 -226 -74 0 -116 24 -133 76 -17 51 -9 164 39 549 43 341 42
359 -12 399 -23 17 -46 22 -120 24 -53 2 -114 -3 -142 -10 l-50 -13 -47 -385
c-26 -212 -47 -413 -47 -446 -2 -179 84 -346 212 -410 26 -14 84 -30 128 -37
68 -10 93 -9 162 6 122 25 197 67 292 161 45 45 99 108 120 141 54 83 111 218
140 333 21 83 45 265 45 339 0 18 8 22 50 28 l50 7 0 75 0 75 -58 -7 -59 -7
-16 44 c-22 58 -70 114 -118 139 -53 27 -152 34 -204 15z m104 -172 c32 -40
28 -58 -11 -50 -17 3 -37 11 -45 17 -16 14 -17 46 0 52 25 10 36 6 56 -19z"/>
<path d="M8074 1290 c-73 -24 -111 -56 -118 -101 -17 -100 -96 -820 -96 -873
0 -91 23 -156 75 -214 70 -78 124 -97 271 -97 119 0 121 0 196 38 58 28 92 54
137 104 34 36 61 69 61 74 0 4 28 -21 63 -55 77 -77 152 -120 253 -146 206
-53 471 6 687 152 116 79 287 258 355 371 l34 56 -27 50 c-15 27 -39 60 -52
73 -24 22 -26 22 -37 4 -77 -130 -246 -304 -368 -380 -140 -86 -300 -125 -403
-97 -64 17 -132 66 -165 118 -87 137 -92 373 -10 539 64 130 151 198 253 198
130 -1 174 -101 130 -299 -9 -41 -14 -78 -10 -81 10 -10 120 17 172 43 109 53
169 139 168 240 -1 77 -28 136 -88 191 -86 80 -187 112 -355 112 -126 0 -196
-16 -305 -70 -195 -96 -334 -266 -380 -465 -18 -75 -21 -264 -6 -327 10 -41
-6 -77 -62 -136 -63 -67 -142 -83 -193 -39 -24 21 -27 31 -27 88 0 35 25 257
56 493 39 293 54 433 47 440 -5 5 -52 11 -103 13 -71 2 -106 -2 -153 -17z"/>
</g>
</svg>
