<?xml version="1.0" standalone="no"?>
<!DOCTYPE svg PUBLIC "-//W3C//DTD SVG 20010904//EN"
 "http://www.w3.org/TR/2001/REC-SVG-20010904/DTD/svg10.dtd">
<svg version="1.0" xmlns="http://www.w3.org/2000/svg"
 width="150.000000pt" height="50.000000pt" viewBox="0 100 1000.000000 100.000000" 
 preserveAspectRatio="xMidYMid meet">

<g transform="translate(0.000000,207.000000) scale(0.100000,-0.100000)"
fill="#e10b0b" stroke="none">
<path d="M744 2063 l-31 -4 -22 -122 c-12 -67 -71 -355 -130 -640 l-107 -519
-80 -41 c-171 -90 -273 -182 -328 -297 -27 -57 -31 -75 -30 -150 0 -147 63
-242 183 -277 112 -32 230 -2 320 82 102 95 118 143 241 690 51 226 95 416 99
423 4 6 35 -205 70 -470 34 -266 65 -491 67 -500 5 -16 19 -18 117 -18 l112 1
214 497 c118 273 218 502 224 507 6 6 7 -4 3 -30 -3 -22 -27 -206 -53 -410
-55 -438 -61 -586 -26 -650 44 -82 109 -122 216 -131 143 -13 287 50 484 212
l32 26 64 -65 c188 -191 528 -231 792 -94 38 20 94 65 151 122 76 75 98 105
133 177 97 201 108 466 26 629 -48 94 -156 197 -256 244 -126 58 -332 71 -484
31 -188 -50 -365 -193 -443 -356 -22 -47 -48 -118 -57 -159 -17 -77 -23 -235
-12 -306 6 -39 5 -41 -49 -85 -67 -55 -129 -87 -182 -96 -56 -9 -82 18 -82 84
0 78 96 1015 140 1361 22 178 38 327 34 330 -3 3 -73 6 -154 6 -120 0 -152 -3
-164 -15 -7 -8 -129 -278 -271 -600 -141 -322 -263 -596 -270 -610 l-13 -25
-6 25 c-3 14 -39 282 -81 595 -41 314 -77 585 -80 603 l-6 32 -137 -2 c-75 0
-151 -3 -168 -5z m2279 -995 c28 -16 53 -41 75 -78 137 -230 62 -635 -137
-744 -47 -25 -61 -28 -121 -24 -57 3 -77 9 -112 34 -130 91 -166 351 -81 589
45 124 98 193 178 232 61 30 133 26 198 -9z m-2628 -580 c-19 -87 -50 -176
-74 -208 -26 -35 -83 -40 -105 -8 -20 28 -21 90 -2 126 19 36 80 93 140 131
27 17 51 30 52 28 1 -1 -4 -32 -11 -69z"/>
<path d="M5185 2055 c-38 -10 -60 -24 -92 -59 -126 -140 -34 -351 152 -351
187 0 280 213 154 350 -57 62 -129 82 -214 60z"/>
<path d="M7016 2060 c-157 -27 -272 -100 -312 -196 -19 -44 -18 -171 1 -225
22 -62 55 -101 116 -134 50 -28 61 -30 159 -30 95 0 110 3 163 28 74 37 171
126 209 194 l29 52 322 3 322 3 45 -47 c64 -66 135 -83 221 -53 52 19 94 56
121 109 16 31 19 53 16 102 -5 78 -41 136 -108 174 l-45 25 -605 2 c-333 0
-627 -3 -654 -7z m175 -339 c-27 -38 -105 -89 -147 -97 -94 -17 -153 54 -88
105 24 18 41 21 141 21 l114 0 -20 -29z"/>
<path d="M7510 1633 c-32 -6 -140 -54 -140 -62 0 -4 -20 -159 -45 -346 -25
-187 -45 -345 -45 -352 0 -6 -38 -32 -84 -57 -46 -25 -118 -71 -161 -101 l-77
-55 -21 27 c-50 62 -47 60 -60 39 -7 -10 -34 -53 -61 -95 -57 -90 -209 -242
-289 -290 -268 -158 -518 -128 -618 75 -30 61 -33 76 -37 183 -7 194 44 340
154 440 64 58 107 75 181 69 96 -8 147 -69 141 -168 -9 -137 -125 -263 -286
-311 -37 -11 -43 -16 -38 -33 3 -12 11 -45 17 -73 14 -63 17 -63 139 -29 274
76 430 198 475 371 68 262 -116 444 -448 445 -187 0 -343 -61 -477 -186 -119
-113 -185 -218 -215 -346 -19 -81 -19 -245 0 -327 15 -60 14 -65 -5 -96 -29
-47 -83 -92 -125 -104 -40 -11 -96 1 -115 24 -23 28 -28 96 -15 189 8 50 35
255 60 455 35 273 44 366 35 375 -7 7 -48 11 -108 11 -106 -1 -176 -18 -226
-58 l-29 -24 -49 -409 c-66 -560 -63 -624 34 -723 18 -19 58 -46 88 -60 49
-23 67 -26 171 -26 113 0 116 1 191 38 57 28 92 54 137 103 l60 66 55 -55
c172 -172 482 -203 777 -77 93 39 220 124 284 189 27 28 52 51 56 51 3 0 9
-25 12 -56 12 -112 93 -208 204 -240 76 -22 207 -15 286 15 122 48 226 182
267 348 11 43 58 339 105 657 67 456 83 581 73 588 -13 8 -183 9 -228 1z
m-264 -1025 c-3 -13 -10 -62 -16 -109 -21 -175 -63 -249 -140 -249 -52 0 -68
8 -85 41 -45 87 18 193 182 305 57 40 65 41 59 12z"/>
<path d="M4449 1360 c-90 -17 -141 -71 -147 -160 -5 -73 8 -109 58 -154 43
-38 92 -56 159 -56 l44 0 -6 -78 c-22 -284 -146 -568 -279 -639 -49 -26 -148
-24 -185 3 -69 51 -70 94 -13 554 22 178 40 339 40 358 0 51 -24 87 -70 106
-79 32 -264 13 -281 -28 -4 -12 -29 -199 -54 -416 -50 -423 -51 -462 -14 -574
61 -181 181 -267 371 -267 138 0 242 37 351 125 186 152 319 452 334 753 l6
123 49 6 48 7 0 73 0 74 -42 -6 c-68 -11 -71 -11 -80 22 -15 57 -70 127 -118
150 -51 25 -118 34 -171 24z m65 -165 c17 -18 30 -54 22 -62 -13 -13 -81 12
-84 30 -9 44 30 64 62 32z"/>
<path d="M8102 1294 c-63 -16 -101 -35 -124 -61 -23 -25 -122 -855 -114 -953
11 -123 82 -220 190 -257 71 -25 232 -25 303 0 70 25 159 91 208 156 l40 53
35 -39 c85 -95 184 -152 312 -179 185 -40 455 28 656 165 111 75 288 263 360
383 l22 36 -22 39 c-28 49 -69 103 -77 103 -3 0 -24 -28 -46 -63 -124 -193
-340 -367 -524 -421 -71 -21 -184 -20 -247 1 -68 23 -144 101 -174 178 -31 81
-39 251 -16 349 31 131 113 258 198 302 21 11 56 18 95 18 69 1 104 -18 136
-73 24 -39 24 -151 2 -231 -8 -30 -15 -59 -15 -64 0 -16 109 2 163 27 116 55
177 138 177 243 0 195 -196 317 -485 301 -308 -17 -577 -246 -640 -545 -17
-85 -20 -229 -4 -301 10 -49 10 -52 -26 -106 -59 -89 -127 -124 -201 -103 -27
7 -39 18 -51 46 -19 45 -19 43 51 577 29 226 52 412 51 413 -2 2 -21 8 -42 13
-54 12 -130 10 -191 -7z"/>
</g>
</svg>
